<svg width="31" height="21" viewBox="0 0 31 21" fill="none" xmlns="http://www.w3.org/2000/svg">
<path d="M27.2727 0.565918H3.0303C1.36364 0.565918 0.0151515 1.70615 0.0151515 3.09977L0 18.3029C0 19.6965 1.36364 20.8368 3.0303 20.8368H27.2727C28.9394 20.8368 30.303 19.6965 30.303 18.3029V3.09977C30.303 1.70615 28.9394 0.565918 27.2727 0.565918ZM25.7576 18.3029H4.54545C3.71212 18.3029 3.0303 17.7328 3.0303 17.036V5.63363L13.5455 11.1321C14.5303 11.6515 15.7727 11.6515 16.7576 11.1321L27.2727 5.63363V17.036C27.2727 17.7328 26.5909 18.3029 25.7576 18.3029ZM15.1515 9.43441L3.0303 3.09977H27.2727L15.1515 9.43441Z" fill="#FD5825"/>
</svg>
