<svg width="30" height="21" viewBox="0 0 30 21" fill="none" xmlns="http://www.w3.org/2000/svg">
<path d="M14.7783 10.353C15.7943 10.353 16.6644 10.1506 17.3885 9.74567C18.1115 9.34146 18.4729 8.8553 18.4729 8.2872C18.4729 7.7191 18.1115 7.2326 17.3885 6.8277C16.6644 6.42349 15.7943 6.22138 14.7783 6.22138C13.7623 6.22138 12.8929 6.42349 12.17 6.8277C11.4458 7.2326 11.0837 7.7191 11.0837 8.2872C11.0837 8.8553 11.4458 9.34146 12.17 9.74567C12.8929 10.1506 13.7623 10.353 14.7783 10.353ZM14.7783 20.2948C14.532 20.2948 14.2857 20.2689 14.0394 20.2173C13.7931 20.1657 13.5776 20.0968 13.3929 20.0107C8.89778 17.79 5.54187 15.7286 3.32512 13.8267C1.10837 11.9241 0 10.1464 0 8.49378C0 5.91151 1.48584 3.8543 4.45751 2.32215C7.42796 0.79 10.8682 0.0239258 14.7783 0.0239258C18.6884 0.0239258 22.1287 0.79 25.0991 2.32215C28.0708 3.8543 29.5567 5.91151 29.5567 8.49378C29.5567 10.1464 28.4483 11.9241 26.2315 13.8267C24.0148 15.7286 20.6589 17.79 16.1638 20.0107C15.9791 20.0968 15.7635 20.1657 15.5172 20.2173C15.2709 20.2689 15.0246 20.2948 14.7783 20.2948Z" fill="#FD5825"/>
</svg>
