<svg width="30" height="21" viewBox="0 0 30 21" fill="none" xmlns="http://www.w3.org/2000/svg">
<path fill-rule="evenodd" clip-rule="evenodd" d="M14.7783 18.8529C16.8863 18.855 18.9575 18.4747 20.782 17.7506V15.0521C20.782 14.2961 20.3441 13.571 19.5646 13.0364C18.7852 12.5018 17.728 12.2015 16.6256 12.2015H12.931C11.8287 12.2015 10.7715 12.5018 9.99201 13.0364C9.21254 13.571 8.77463 14.2961 8.77463 15.0521V17.7506C10.5991 18.4747 12.6704 18.855 14.7783 18.8529ZM23.553 15.0521V16.2392C25.1503 15.0664 26.2132 13.5991 26.611 12.0176C27.0087 10.4361 26.724 8.80932 25.7919 7.33729C24.8597 5.86526 23.3207 4.61212 21.364 3.73189C19.4074 2.85167 17.1184 2.38274 14.7783 2.38274C12.4383 2.38274 10.1493 2.85167 8.1926 3.73189C6.23595 4.61212 4.69694 5.86526 3.76478 7.33729C2.83261 8.80932 2.54791 10.4361 2.94568 12.0176C3.34344 13.5991 4.40633 15.0664 6.00369 16.2392V15.0521C6.00368 14.0726 6.44485 13.117 7.26688 12.316C8.0889 11.5151 9.25163 10.9078 10.5961 10.5773C9.8985 10.027 9.44645 9.35075 9.29384 8.62914C9.14123 7.90754 9.2945 7.17105 9.73536 6.50753C10.1762 5.84401 10.8861 5.28147 11.7802 4.887C12.6744 4.49254 13.7151 4.28279 14.7783 4.28279C15.8415 4.28279 16.8822 4.49254 17.7764 4.887C18.6706 5.28147 19.3804 5.84401 19.8213 6.50753C20.2621 7.17105 20.4154 7.90754 20.2628 8.62914C20.1102 9.35075 19.6582 10.027 18.9606 10.5773C20.305 10.9078 21.4678 11.5151 22.2898 12.316C23.1118 13.117 23.553 14.0726 23.553 15.0521ZM14.7783 20.7533C18.6978 20.7533 22.4567 19.6854 25.2282 17.7847C27.9997 15.8839 29.5567 13.3059 29.5567 10.6178C29.5567 7.92976 27.9997 5.35178 25.2282 3.45102C22.4567 1.55026 18.6978 0.482422 14.7783 0.482422C10.8589 0.482422 7.09995 1.55026 4.32847 3.45102C1.557 5.35178 0 7.92976 0 10.6178C0 13.3059 1.557 15.8839 4.32847 17.7847C7.09995 19.6854 10.8589 20.7533 14.7783 20.7533ZM17.5493 8.08399C17.5493 8.588 17.2573 9.07138 16.7377 9.42777C16.218 9.78416 15.5132 9.98438 14.7783 9.98438C14.0434 9.98438 13.3386 9.78416 12.819 9.42777C12.2993 9.07138 12.0074 8.588 12.0074 8.08399C12.0074 7.57997 12.2993 7.0966 12.819 6.74021C13.3386 6.38382 14.0434 6.1836 14.7783 6.1836C15.5132 6.1836 16.218 6.38382 16.7377 6.74021C17.2573 7.0966 17.5493 7.57997 17.5493 8.08399Z" fill="#FD5825"/>
</svg>
