<svg width="31" height="21" viewBox="0 0 31 21" fill="none" xmlns="http://www.w3.org/2000/svg">
<path d="M27.2109 10.2148C27.2109 8.02484 26.0556 6.16696 23.7449 4.64113C21.4354 3.11604 18.6224 2.3535 15.3061 2.3535V0.107422C17.432 0.107422 19.4235 0.373956 21.2806 0.907025C23.1366 1.44084 24.7523 2.16183 26.1276 3.07C27.5017 3.97741 28.593 5.0443 29.4014 6.27066C30.2086 7.49627 30.6122 8.81097 30.6122 10.2148H27.2109ZM20.4082 10.2148C20.4082 9.2789 19.9121 8.48342 18.9201 7.82831C17.928 7.17321 16.7234 6.84565 15.3061 6.84565V4.59958C17.6587 4.59958 19.6644 5.14687 21.3231 6.24146C22.9807 7.3368 23.8095 8.66123 23.8095 10.2148H20.4082ZM28.8265 20.3783C25.1701 20.3783 21.606 19.84 18.1344 18.7633C14.6616 17.6875 11.5862 16.265 8.90816 14.4958C6.22902 12.7274 4.07483 10.6966 2.44558 8.40331C0.815193 6.11081 0 3.7573 0 1.34276C0 1.00585 0.170068 0.725093 0.510204 0.500485C0.85034 0.275878 1.27551 0.163574 1.78571 0.163574H8.67347C9.0703 0.163574 9.4246 0.247802 9.73639 0.416257C10.0482 0.584713 10.2324 0.799962 10.2891 1.062L11.3946 4.99264C11.4512 5.25468 11.4444 5.49314 11.3741 5.70801C11.3027 5.92364 11.1395 6.11568 10.8844 6.28413L6.80272 9.03558C7.9932 10.3832 9.48129 11.6466 11.267 12.8258C13.0527 14.005 15.0227 15.0251 17.1769 15.8861L21.1735 13.247C21.4286 13.0785 21.7619 12.952 22.1735 12.8674C22.5839 12.7835 22.9875 12.7603 23.3844 12.7978L29.2517 13.5839C29.6485 13.64 29.9745 13.7662 30.2296 13.9623C30.4847 14.1593 30.6122 14.3887 30.6122 14.6508V19.1991C30.6122 19.536 30.4422 19.8167 30.102 20.0414C29.7619 20.266 29.3367 20.3783 28.8265 20.3783Z" fill="#FD5825"/>
</svg>
