<svg width="22" height="22" viewBox="0 0 22 22" fill="none" xmlns="http://www.w3.org/2000/svg">
<g clip-path="url(#clip0_214_4)">
<path d="M19.2253 9.32309C19.2253 15.5684 11.1957 20.9215 11.1957 20.9215C11.1957 20.9215 3.16602 15.5684 3.16602 9.32309C3.16602 7.1935 4.01199 5.15113 5.51784 3.64528C7.02369 2.13943 9.06606 1.29346 11.1957 1.29346C13.3252 1.29346 15.3676 2.13943 16.8735 3.64528C18.3793 5.15113 19.2253 7.1935 19.2253 9.32309Z" stroke="black" stroke-width="2" stroke-linecap="round" stroke-linejoin="round"/>
<path d="M11.1961 11.9996C12.6743 11.9996 13.8726 10.8012 13.8726 9.32303C13.8726 7.84481 12.6743 6.64648 11.1961 6.64648C9.71786 6.64648 8.51953 7.84481 8.51953 9.32303C8.51953 10.8012 9.71786 11.9996 11.1961 11.9996Z" stroke="black" stroke-width="2" stroke-linecap="round" stroke-linejoin="round"/>
</g>
<defs>
<clipPath id="clip0_214_4">
<rect width="21.4124" height="21.4124" fill="white" transform="translate(0.490234 0.401367)"/>
</clipPath>
</defs>
</svg>
