<svg width="68" height="56" viewBox="0 0 68 56" fill="none" xmlns="http://www.w3.org/2000/svg">
<path d="M68 14V50C68 53.3125 65.1445 56 61.625 56H6.375C2.85547 56 0 53.3125 0 50V14C0 10.6875 2.85547 8 6.375 8H18.0625L19.6961 3.8875C20.6258 1.55 23.0031 0 25.6594 0H42.3273C44.9836 0 47.3609 1.55 48.2906 3.8875L49.9375 8H61.625C65.1445 8 68 10.6875 68 14ZM49.9375 32C49.9375 23.725 42.7922 17 34 17C25.2078 17 18.0625 23.725 18.0625 32C18.0625 40.275 25.2078 47 34 47C42.7922 47 49.9375 40.275 49.9375 32ZM45.6875 32C45.6875 38.0625 40.4414 43 34 43C27.5586 43 22.3125 38.0625 22.3125 32C22.3125 25.9375 27.5586 21 34 21C40.4414 21 45.6875 25.9375 45.6875 32Z" fill="#BCBCBC"/>
</svg>
